<svg xmlns="http://www.w3.org/2000/svg" width="364.3" height="315.2" viewBox="0 0 364.3 315.2">
  <g id="katman_2" data-name="katman 2">
    <g id="katman_1-2" data-name="katman 1">
      <g>
        <path d="M103.3,218.7c4.6,44,42.6,69.6,72.3,70.3V131.4C134.3,134.2,98.4,171.7,103.3,218.7Z" style="fill: none"/>
        <path d="M175.5,39.2c-.1,0-.3-.1-.4-.1q-29.85,51.75-59.8,103.6c17.1-15.8,37.1-24.9,60.3-26.8C175.5,90.2,175.5,64.7,175.5,39.2Z" style="fill: none"/>
        <path d="M90.3,185.8Q56.85,243.55,23.4,301.6H156.8C110.6,288.6,77,240.2,90.3,185.8Z" style="fill: none"/>
        <path d="M274.3,186.3c5.3,24.9,2.7,48.5-10,70.7s-31.7,36.7-56.1,44.6H340.9C318.6,263,296.4,224.7,274.3,186.3Z" style="fill: none"/>
        <path d="M249,142.6Q219,90.85,189.1,39c-.2.1-.3.2-.5.2v76.7A95.9389,95.9389,0,0,1,221,124,112.8517,112.8517,0,0,1,249,142.6Z" style="fill: none"/>
        <path d="M261.4,206.4c-2.1-45.4-40.2-73.7-72.7-74.8V289.2C226.2,287,263.6,253.5,261.4,206.4Z" style="fill: none"/>
        <path d="M182.1,0Q90.9,157.8,0,315.2H364.3Q273.1,157.4,182.1,0Zm-7,39.1c.1,0,.3.1.4.1v76.7c-23.2,1.9-43.1,11-60.3,26.8Q145.2,90.8,175.1,39.1ZM23.4,301.5Q57,243.45,90.3,185.7C77,240.1,110.6,288.5,156.8,301.5Zm152.2-12.6c-29.7-.7-67.7-26.3-72.3-70.3-4.9-46.9,31-84.5,72.3-87.3Zm13-249.7c.2-.1.3-.2.5-.2q30,51.75,59.9,103.6a114.7422,114.7422,0,0,0-27.9-18.5,96.5323,96.5323,0,0,0-32.4-8.1C188.6,90.2,188.6,64.7,188.6,39.2Zm0,92.3c32.5,1.1,70.6,29.4,72.7,74.8,2.2,47.1-35.1,80.6-72.7,82.8ZM264.3,257c12.7-22.1,15.3-45.8,10-70.7q33.15,57.45,66.6,115.2H208.2C232.6,293.7,251.6,279.2,264.3,257Z"/>
      </g>
    </g>
  </g>
</svg>
